<mxfile host="65bd71144e">
    <diagram id="SCU5DN29UaH0Jmi82Fon" name="グリッド表示">
        <mxGraphModel dx="1216" dy="779" grid="1" gridSize="10" guides="1" tooltips="1" connect="1" arrows="1" fold="1" page="1" pageScale="1" pageWidth="827" pageHeight="1169" math="0" shadow="0">
            <root>
                <mxCell id="0"/>
                <mxCell id="1" parent="0"/>
                <mxCell id="kNxxIQX6q6KvaHjpF66y-141" value="" style="group" parent="1" vertex="1" connectable="0">
                    <mxGeometry width="650" height="520" as="geometry"/>
                </mxCell>
                <mxCell id="Ry6TbUcTh6-znkTq9k22-141" value="" style="rounded=0;whiteSpace=wrap;html=1;fillColor=default;strokeColor=none;" parent="kNxxIQX6q6KvaHjpF66y-141" vertex="1">
                    <mxGeometry width="650" height="520" as="geometry"/>
                </mxCell>
                <mxCell id="134" value="" style="rounded=0;whiteSpace=wrap;html=1;fillColor=none;strokeColor=#A3A3A3;" parent="kNxxIQX6q6KvaHjpF66y-141" vertex="1">
                    <mxGeometry x="100" y="50" width="450" height="440" as="geometry"/>
                </mxCell>
                <mxCell id="113" style="edgeStyle=none;html=1;entryX=0.5;entryY=0;entryDx=0;entryDy=0;" parent="kNxxIQX6q6KvaHjpF66y-141" source="112" target="50" edge="1">
                    <mxGeometry relative="1" as="geometry"/>
                </mxCell>
                <mxCell id="112" value=".year" style="rounded=0;whiteSpace=wrap;html=1;fillColor=none;strokeColor=light-dark(#a3a3a3, #ededed);fontStyle=0;fontColor=#757575;" parent="kNxxIQX6q6KvaHjpF66y-141" vertex="1">
                    <mxGeometry x="160" y="20" width="45" height="20" as="geometry"/>
                </mxCell>
                <mxCell id="115" style="edgeStyle=none;html=1;exitX=0.25;exitY=1;exitDx=0;exitDy=0;entryX=0.5;entryY=0;entryDx=0;entryDy=0;" parent="kNxxIQX6q6KvaHjpF66y-141" source="114" target="52" edge="1">
                    <mxGeometry relative="1" as="geometry"/>
                </mxCell>
                <mxCell id="114" value=".month" style="rounded=0;whiteSpace=wrap;html=1;fillColor=none;strokeColor=light-dark(#a3a3a3, #ededed);fontStyle=0;fontColor=#757575;" parent="kNxxIQX6q6KvaHjpF66y-141" vertex="1">
                    <mxGeometry x="220" y="20" width="45" height="20" as="geometry"/>
                </mxCell>
                <mxCell id="116" value=".week" style="rounded=0;whiteSpace=wrap;html=1;fillColor=none;strokeColor=light-dark(#a3a3a3, #ededed);fontStyle=0;fontColor=#757575;" parent="kNxxIQX6q6KvaHjpF66y-141" vertex="1">
                    <mxGeometry x="570" y="109" width="45" height="20" as="geometry"/>
                </mxCell>
                <mxCell id="117" style="edgeStyle=none;html=1;entryX=1;entryY=0.422;entryDx=0;entryDy=0;entryPerimeter=0;" parent="kNxxIQX6q6KvaHjpF66y-141" source="116" target="55" edge="1">
                    <mxGeometry relative="1" as="geometry"/>
                </mxCell>
                <mxCell id="118" value=".week" style="rounded=0;whiteSpace=wrap;html=1;fillColor=none;strokeColor=light-dark(#a3a3a3, #ededed);fontStyle=0;fontColor=#757575;" parent="kNxxIQX6q6KvaHjpF66y-141" vertex="1">
                    <mxGeometry x="570" y="220" width="45" height="20" as="geometry"/>
                </mxCell>
                <mxCell id="119" style="edgeStyle=none;html=1;entryX=1.001;entryY=0.362;entryDx=0;entryDy=0;entryPerimeter=0;" parent="kNxxIQX6q6KvaHjpF66y-141" source="118" target="107" edge="1">
                    <mxGeometry relative="1" as="geometry"/>
                </mxCell>
                <mxCell id="121" style="edgeStyle=none;html=1;entryX=0;entryY=0.25;entryDx=0;entryDy=0;" parent="kNxxIQX6q6KvaHjpF66y-141" source="120" target="106" edge="1">
                    <mxGeometry relative="1" as="geometry"/>
                </mxCell>
                <mxCell id="120" value=".day" style="rounded=0;whiteSpace=wrap;html=1;fillColor=none;strokeColor=light-dark(#a3a3a3, #ededed);fontStyle=0;fontColor=#757575;" parent="kNxxIQX6q6KvaHjpF66y-141" vertex="1">
                    <mxGeometry x="50" y="109" width="45" height="20" as="geometry"/>
                </mxCell>
                <mxCell id="123" style="edgeStyle=none;html=1;entryX=0;entryY=0.25;entryDx=0;entryDy=0;" parent="kNxxIQX6q6KvaHjpF66y-141" source="122" target="108" edge="1">
                    <mxGeometry relative="1" as="geometry"/>
                </mxCell>
                <mxCell id="122" value=".day" style="rounded=0;whiteSpace=wrap;html=1;fillColor=none;strokeColor=light-dark(#a3a3a3, #ededed);fontStyle=0;fontColor=#757575;" parent="kNxxIQX6q6KvaHjpF66y-141" vertex="1">
                    <mxGeometry x="50" y="229" width="45" height="20" as="geometry"/>
                </mxCell>
                <mxCell id="127" style="edgeStyle=none;html=1;" parent="kNxxIQX6q6KvaHjpF66y-141" source="126" target="124" edge="1">
                    <mxGeometry relative="1" as="geometry"/>
                </mxCell>
                <mxCell id="126" value=".cap" style="rounded=0;whiteSpace=wrap;html=1;fillColor=none;strokeColor=light-dark(#a3a3a3, #ededed);fontStyle=0;fontColor=#757575;" parent="kNxxIQX6q6KvaHjpF66y-141" vertex="1">
                    <mxGeometry x="50" y="290" width="45" height="20" as="geometry"/>
                </mxCell>
                <mxCell id="130" style="edgeStyle=none;html=1;entryX=1;entryY=0.25;entryDx=0;entryDy=0;" parent="kNxxIQX6q6KvaHjpF66y-141" source="129" target="128" edge="1">
                    <mxGeometry relative="1" as="geometry"/>
                </mxCell>
                <mxCell id="129" value="header" style="rounded=0;whiteSpace=wrap;html=1;fillColor=none;strokeColor=light-dark(#a3a3a3, #ededed);fontStyle=0;fontColor=#757575;" parent="kNxxIQX6q6KvaHjpF66y-141" vertex="1">
                    <mxGeometry x="570" y="30" width="45" height="20" as="geometry"/>
                </mxCell>
                <mxCell id="132" value="h2" style="rounded=0;whiteSpace=wrap;html=1;fillColor=none;strokeColor=light-dark(#a3a3a3, #ededed);fontStyle=0;fontColor=#757575;" parent="kNxxIQX6q6KvaHjpF66y-141" vertex="1">
                    <mxGeometry x="100" y="20" width="45" height="20" as="geometry"/>
                </mxCell>
                <mxCell id="133" style="edgeStyle=none;html=1;entryX=0.094;entryY=0.001;entryDx=0;entryDy=0;entryPerimeter=0;" parent="kNxxIQX6q6KvaHjpF66y-141" source="132" target="131" edge="1">
                    <mxGeometry relative="1" as="geometry"/>
                </mxCell>
                <mxCell id="135" value=".calendar" style="rounded=0;whiteSpace=wrap;html=1;fillColor=none;strokeColor=light-dark(#a3a3a3, #ededed);fontStyle=0;fontColor=#757575;" parent="kNxxIQX6q6KvaHjpF66y-141" vertex="1">
                    <mxGeometry x="30" y="30" width="60" height="20" as="geometry"/>
                </mxCell>
                <mxCell id="137" style="edgeStyle=none;html=1;entryX=0.001;entryY=0.043;entryDx=0;entryDy=0;entryPerimeter=0;" parent="kNxxIQX6q6KvaHjpF66y-141" source="135" target="134" edge="1">
                    <mxGeometry relative="1" as="geometry"/>
                </mxCell>
                <mxCell id="141" style="edgeStyle=none;html=1;entryX=0;entryY=0.75;entryDx=0;entryDy=0;" parent="kNxxIQX6q6KvaHjpF66y-141" source="140" target="138" edge="1">
                    <mxGeometry relative="1" as="geometry"/>
                </mxCell>
                <mxCell id="140" value=".header" style="rounded=0;whiteSpace=wrap;html=1;fillColor=none;strokeColor=light-dark(#a3a3a3, #ededed);fontStyle=0;fontColor=#757575;" parent="kNxxIQX6q6KvaHjpF66y-141" vertex="1">
                    <mxGeometry x="50" y="170" width="45" height="20" as="geometry"/>
                </mxCell>
                <mxCell id="iskRbFnMrTEnTFIFkzji-142" value=".month" style="rounded=0;whiteSpace=wrap;html=1;fillColor=none;strokeColor=light-dark(#a3a3a3, #ededed);fontStyle=0;fontColor=#757575;" parent="kNxxIQX6q6KvaHjpF66y-141" vertex="1">
                    <mxGeometry x="570" y="160" width="45" height="20" as="geometry"/>
                </mxCell>
                <mxCell id="iskRbFnMrTEnTFIFkzji-143" style="edgeStyle=none;html=1;entryX=0.999;entryY=0.224;entryDx=0;entryDy=0;entryPerimeter=0;" parent="kNxxIQX6q6KvaHjpF66y-141" source="iskRbFnMrTEnTFIFkzji-142" target="iskRbFnMrTEnTFIFkzji-141" edge="1">
                    <mxGeometry relative="1" as="geometry"/>
                </mxCell>
                <mxCell id="2" value="日" style="rounded=0;whiteSpace=wrap;html=1;fontSize=26;fontColor=light-dark(#ff0000, #ededed);textShadow=1;" parent="kNxxIQX6q6KvaHjpF66y-141" vertex="1">
                    <mxGeometry x="110" y="120" width="61.42857142857143" height="60" as="geometry"/>
                </mxCell>
                <mxCell id="3" value="月" style="rounded=0;whiteSpace=wrap;html=1;fontSize=26;fontColor=light-dark(#000000,#EDEDED);textShadow=1;" parent="kNxxIQX6q6KvaHjpF66y-141" vertex="1">
                    <mxGeometry x="171.42857142857144" y="120" width="61.42857142857143" height="60" as="geometry"/>
                </mxCell>
                <mxCell id="4" value="火" style="rounded=0;whiteSpace=wrap;html=1;fontSize=26;fontColor=light-dark(#000000,#EDEDED);textShadow=1;" parent="kNxxIQX6q6KvaHjpF66y-141" vertex="1">
                    <mxGeometry x="232.85714285714286" y="120" width="61.42857142857143" height="60" as="geometry"/>
                </mxCell>
                <mxCell id="5" value="水" style="rounded=0;whiteSpace=wrap;html=1;fontSize=26;fontColor=light-dark(#000000,#EDEDED);textShadow=1;" parent="kNxxIQX6q6KvaHjpF66y-141" vertex="1">
                    <mxGeometry x="294.28571428571433" y="120" width="61.42857142857143" height="60" as="geometry"/>
                </mxCell>
                <mxCell id="6" value="木" style="rounded=0;whiteSpace=wrap;html=1;fontSize=26;fontColor=light-dark(#000000,#EDEDED);textShadow=1;" parent="kNxxIQX6q6KvaHjpF66y-141" vertex="1">
                    <mxGeometry x="355.7142857142857" y="120" width="61.42857142857143" height="60" as="geometry"/>
                </mxCell>
                <mxCell id="7" value="金" style="rounded=0;whiteSpace=wrap;html=1;fontSize=26;fontColor=light-dark(#000000,#EDEDED);textShadow=1;" parent="kNxxIQX6q6KvaHjpF66y-141" vertex="1">
                    <mxGeometry x="417.14285714285717" y="120" width="61.42857142857143" height="60" as="geometry"/>
                </mxCell>
                <mxCell id="8" value="土" style="rounded=0;whiteSpace=wrap;html=1;fontSize=26;fontColor=light-dark(#0000FF,#EDEDED);textShadow=1;" parent="kNxxIQX6q6KvaHjpF66y-141" vertex="1">
                    <mxGeometry x="478.5714285714286" y="120" width="61.42857142857143" height="60" as="geometry"/>
                </mxCell>
                <mxCell id="10" value="" style="rounded=0;whiteSpace=wrap;html=1;fontSize=26;" parent="kNxxIQX6q6KvaHjpF66y-141" vertex="1">
                    <mxGeometry x="110" y="60" width="430" height="60" as="geometry"/>
                </mxCell>
                <mxCell id="9" value="2025年9月" style="text;html=1;align=center;verticalAlign=middle;resizable=0;points=[];autosize=1;strokeColor=none;fillColor=none;fontSize=26;" parent="kNxxIQX6q6KvaHjpF66y-141" vertex="1">
                    <mxGeometry x="110" y="66" width="150" height="40" as="geometry"/>
                </mxCell>
                <mxCell id="11" value="" style="rounded=0;whiteSpace=wrap;html=1;fontSize=26;fontColor=light-dark(#ff0000, #ededed);textShadow=1;" parent="kNxxIQX6q6KvaHjpF66y-141" vertex="1">
                    <mxGeometry x="110" y="180" width="61.42857142857143" height="60" as="geometry"/>
                </mxCell>
                <mxCell id="12" value="1" style="rounded=0;whiteSpace=wrap;html=1;fontSize=26;fontColor=light-dark(#000000,#EDEDED);textShadow=1;" parent="kNxxIQX6q6KvaHjpF66y-141" vertex="1">
                    <mxGeometry x="171.42857142857144" y="180" width="61.42857142857143" height="60" as="geometry"/>
                </mxCell>
                <mxCell id="13" value="2" style="rounded=0;whiteSpace=wrap;html=1;fontSize=26;fontColor=light-dark(#000000,#EDEDED);textShadow=1;" parent="kNxxIQX6q6KvaHjpF66y-141" vertex="1">
                    <mxGeometry x="232.85714285714286" y="180" width="61.42857142857143" height="60" as="geometry"/>
                </mxCell>
                <mxCell id="14" value="3" style="rounded=0;whiteSpace=wrap;html=1;fontSize=26;fontColor=light-dark(#000000,#EDEDED);textShadow=1;" parent="kNxxIQX6q6KvaHjpF66y-141" vertex="1">
                    <mxGeometry x="294.28571428571433" y="180" width="61.42857142857143" height="60" as="geometry"/>
                </mxCell>
                <mxCell id="15" value="4" style="rounded=0;whiteSpace=wrap;html=1;fontSize=26;fontColor=light-dark(#000000,#EDEDED);textShadow=1;" parent="kNxxIQX6q6KvaHjpF66y-141" vertex="1">
                    <mxGeometry x="355.7142857142857" y="180" width="61.42857142857143" height="60" as="geometry"/>
                </mxCell>
                <mxCell id="16" value="5" style="rounded=0;whiteSpace=wrap;html=1;fontSize=26;fontColor=light-dark(#000000,#EDEDED);textShadow=1;" parent="kNxxIQX6q6KvaHjpF66y-141" vertex="1">
                    <mxGeometry x="417.14285714285717" y="180" width="61.42857142857143" height="60" as="geometry"/>
                </mxCell>
                <mxCell id="17" value="6" style="rounded=0;whiteSpace=wrap;html=1;fontSize=26;fontColor=light-dark(#0000FF,#EDEDED);textShadow=1;" parent="kNxxIQX6q6KvaHjpF66y-141" vertex="1">
                    <mxGeometry x="478.5714285714286" y="180" width="61.42857142857143" height="60" as="geometry"/>
                </mxCell>
                <mxCell id="18" value="7" style="rounded=0;whiteSpace=wrap;html=1;fontSize=26;fontColor=light-dark(#ff0000, #ededed);textShadow=1;" parent="kNxxIQX6q6KvaHjpF66y-141" vertex="1">
                    <mxGeometry x="110" y="240" width="61.42857142857143" height="60" as="geometry"/>
                </mxCell>
                <mxCell id="19" value="8" style="rounded=0;whiteSpace=wrap;html=1;fontSize=26;fontColor=light-dark(#000000,#EDEDED);textShadow=1;" parent="kNxxIQX6q6KvaHjpF66y-141" vertex="1">
                    <mxGeometry x="171.42857142857144" y="240" width="61.42857142857143" height="60" as="geometry"/>
                </mxCell>
                <mxCell id="20" value="9" style="rounded=0;whiteSpace=wrap;html=1;fontSize=26;fontColor=light-dark(#000000,#EDEDED);textShadow=1;" parent="kNxxIQX6q6KvaHjpF66y-141" vertex="1">
                    <mxGeometry x="232.85714285714286" y="240" width="61.42857142857143" height="60" as="geometry"/>
                </mxCell>
                <mxCell id="21" value="10" style="rounded=0;whiteSpace=wrap;html=1;fontSize=26;fontColor=light-dark(#000000,#EDEDED);textShadow=1;" parent="kNxxIQX6q6KvaHjpF66y-141" vertex="1">
                    <mxGeometry x="294.28571428571433" y="240" width="61.42857142857143" height="60" as="geometry"/>
                </mxCell>
                <mxCell id="22" value="11" style="rounded=0;whiteSpace=wrap;html=1;fontSize=26;fontColor=light-dark(#000000,#EDEDED);textShadow=1;" parent="kNxxIQX6q6KvaHjpF66y-141" vertex="1">
                    <mxGeometry x="355.7142857142857" y="240" width="61.42857142857143" height="60" as="geometry"/>
                </mxCell>
                <mxCell id="23" value="12" style="rounded=0;whiteSpace=wrap;html=1;fontSize=26;fontColor=light-dark(#000000,#EDEDED);textShadow=1;" parent="kNxxIQX6q6KvaHjpF66y-141" vertex="1">
                    <mxGeometry x="417.14285714285717" y="240" width="61.42857142857143" height="60" as="geometry"/>
                </mxCell>
                <mxCell id="24" value="13" style="rounded=0;whiteSpace=wrap;html=1;fontSize=26;fontColor=light-dark(#0000FF,#EDEDED);textShadow=1;" parent="kNxxIQX6q6KvaHjpF66y-141" vertex="1">
                    <mxGeometry x="478.5714285714286" y="240" width="61.42857142857143" height="60" as="geometry"/>
                </mxCell>
                <mxCell id="25" value="14" style="rounded=0;whiteSpace=wrap;html=1;fontSize=26;fontColor=light-dark(#ff0000, #ededed);textShadow=1;" parent="kNxxIQX6q6KvaHjpF66y-141" vertex="1">
                    <mxGeometry x="110" y="300" width="61.42857142857143" height="60" as="geometry"/>
                </mxCell>
                <mxCell id="26" value="16" style="rounded=0;whiteSpace=wrap;html=1;fontSize=26;fontColor=light-dark(#000000,#EDEDED);textShadow=1;" parent="kNxxIQX6q6KvaHjpF66y-141" vertex="1">
                    <mxGeometry x="232.85714285714286" y="300" width="61.42857142857143" height="60" as="geometry"/>
                </mxCell>
                <mxCell id="27" value="17" style="rounded=0;whiteSpace=wrap;html=1;fontSize=26;fontColor=light-dark(#000000,#EDEDED);textShadow=1;" parent="kNxxIQX6q6KvaHjpF66y-141" vertex="1">
                    <mxGeometry x="294.28571428571433" y="300" width="61.42857142857143" height="60" as="geometry"/>
                </mxCell>
                <mxCell id="28" value="18" style="rounded=0;whiteSpace=wrap;html=1;fontSize=26;fontColor=light-dark(#000000,#EDEDED);textShadow=1;" parent="kNxxIQX6q6KvaHjpF66y-141" vertex="1">
                    <mxGeometry x="355.7142857142857" y="300" width="61.42857142857143" height="60" as="geometry"/>
                </mxCell>
                <mxCell id="29" value="19" style="rounded=0;whiteSpace=wrap;html=1;fontSize=26;fontColor=light-dark(#000000,#EDEDED);textShadow=1;" parent="kNxxIQX6q6KvaHjpF66y-141" vertex="1">
                    <mxGeometry x="417.14285714285717" y="300" width="61.42857142857143" height="60" as="geometry"/>
                </mxCell>
                <mxCell id="30" value="20" style="rounded=0;whiteSpace=wrap;html=1;fontSize=26;fontColor=light-dark(#0000FF,#EDEDED);textShadow=1;" parent="kNxxIQX6q6KvaHjpF66y-141" vertex="1">
                    <mxGeometry x="478.5714285714286" y="300" width="61.42857142857143" height="60" as="geometry"/>
                </mxCell>
                <mxCell id="32" value="21" style="rounded=0;whiteSpace=wrap;html=1;fontSize=26;fontColor=light-dark(#ff0000, #ededed);textShadow=1;" parent="kNxxIQX6q6KvaHjpF66y-141" vertex="1">
                    <mxGeometry x="110" y="360" width="61.42857142857143" height="60" as="geometry"/>
                </mxCell>
                <mxCell id="33" value="23" style="rounded=0;whiteSpace=wrap;html=1;fontSize=26;fontColor=light-dark(#000000,#EDEDED);textShadow=1;" parent="kNxxIQX6q6KvaHjpF66y-141" vertex="1">
                    <mxGeometry x="232.85714285714286" y="360" width="61.42857142857143" height="60" as="geometry"/>
                </mxCell>
                <mxCell id="34" value="24" style="rounded=0;whiteSpace=wrap;html=1;fontSize=26;fontColor=light-dark(#000000,#EDEDED);textShadow=1;" parent="kNxxIQX6q6KvaHjpF66y-141" vertex="1">
                    <mxGeometry x="294.28571428571433" y="360" width="61.42857142857143" height="60" as="geometry"/>
                </mxCell>
                <mxCell id="35" value="25" style="rounded=0;whiteSpace=wrap;html=1;fontSize=26;fontColor=light-dark(#000000,#EDEDED);textShadow=1;" parent="kNxxIQX6q6KvaHjpF66y-141" vertex="1">
                    <mxGeometry x="355.7142857142857" y="360" width="61.42857142857143" height="60" as="geometry"/>
                </mxCell>
                <mxCell id="36" value="26" style="rounded=0;whiteSpace=wrap;html=1;fontSize=26;fontColor=light-dark(#000000,#EDEDED);textShadow=1;" parent="kNxxIQX6q6KvaHjpF66y-141" vertex="1">
                    <mxGeometry x="417.14285714285717" y="360" width="61.42857142857143" height="60" as="geometry"/>
                </mxCell>
                <mxCell id="37" value="27" style="rounded=0;whiteSpace=wrap;html=1;fontSize=26;fontColor=light-dark(#0000FF,#EDEDED);textShadow=1;" parent="kNxxIQX6q6KvaHjpF66y-141" vertex="1">
                    <mxGeometry x="478.5714285714286" y="360" width="61.42857142857143" height="60" as="geometry"/>
                </mxCell>
                <mxCell id="39" value="28" style="rounded=0;whiteSpace=wrap;html=1;fontSize=26;fontColor=light-dark(#ff0000, #ededed);textShadow=1;" parent="kNxxIQX6q6KvaHjpF66y-141" vertex="1">
                    <mxGeometry x="110" y="420" width="61.42857142857143" height="60" as="geometry"/>
                </mxCell>
                <mxCell id="40" value="30" style="rounded=0;whiteSpace=wrap;html=1;fontSize=26;fontColor=light-dark(#000000,#EDEDED);textShadow=1;" parent="kNxxIQX6q6KvaHjpF66y-141" vertex="1">
                    <mxGeometry x="232.85714285714286" y="420" width="61.42857142857143" height="60" as="geometry"/>
                </mxCell>
                <mxCell id="41" value="" style="rounded=0;whiteSpace=wrap;html=1;fontSize=26;fontColor=light-dark(#000000,#EDEDED);textShadow=1;" parent="kNxxIQX6q6KvaHjpF66y-141" vertex="1">
                    <mxGeometry x="294.28571428571433" y="420" width="61.42857142857143" height="60" as="geometry"/>
                </mxCell>
                <mxCell id="42" value="" style="rounded=0;whiteSpace=wrap;html=1;fontSize=26;fontColor=light-dark(#000000,#EDEDED);textShadow=1;" parent="kNxxIQX6q6KvaHjpF66y-141" vertex="1">
                    <mxGeometry x="355.7142857142857" y="420" width="61.42857142857143" height="60" as="geometry"/>
                </mxCell>
                <mxCell id="43" value="" style="rounded=0;whiteSpace=wrap;html=1;fontSize=26;fontColor=light-dark(#000000,#EDEDED);textShadow=1;" parent="kNxxIQX6q6KvaHjpF66y-141" vertex="1">
                    <mxGeometry x="417.14285714285717" y="420" width="61.42857142857143" height="60" as="geometry"/>
                </mxCell>
                <mxCell id="44" value="" style="rounded=0;whiteSpace=wrap;html=1;fontSize=26;fontColor=light-dark(#000000,#EDEDED);textShadow=1;" parent="kNxxIQX6q6KvaHjpF66y-141" vertex="1">
                    <mxGeometry x="478.5714285714286" y="420" width="61.42857142857143" height="60" as="geometry"/>
                </mxCell>
                <mxCell id="46" value="15" style="rounded=0;whiteSpace=wrap;html=1;fontSize=26;fontColor=light-dark(#000000,#EDEDED);textShadow=1;" parent="kNxxIQX6q6KvaHjpF66y-141" vertex="1">
                    <mxGeometry x="171.42857142857144" y="300" width="61.42857142857143" height="60" as="geometry"/>
                </mxCell>
                <mxCell id="47" value="22" style="rounded=0;whiteSpace=wrap;html=1;fontSize=26;fontColor=light-dark(#000000,#EDEDED);textShadow=1;" parent="kNxxIQX6q6KvaHjpF66y-141" vertex="1">
                    <mxGeometry x="171.42857142857144" y="360" width="61.42857142857143" height="60" as="geometry"/>
                </mxCell>
                <mxCell id="48" value="29" style="rounded=0;whiteSpace=wrap;html=1;fontSize=26;fontColor=light-dark(#000000,#EDEDED);textShadow=1;" parent="kNxxIQX6q6KvaHjpF66y-141" vertex="1">
                    <mxGeometry x="171.42857142857144" y="420" width="61.42857142857143" height="60" as="geometry"/>
                </mxCell>
                <mxCell id="50" value="" style="rounded=0;whiteSpace=wrap;html=1;fillColor=none;strokeColor=#A3A3A3;" parent="kNxxIQX6q6KvaHjpF66y-141" vertex="1">
                    <mxGeometry x="120" y="70" width="60" height="30" as="geometry"/>
                </mxCell>
                <mxCell id="51" value="" style="rounded=0;whiteSpace=wrap;html=1;fillColor=none;strokeColor=#A3A3A3;" parent="kNxxIQX6q6KvaHjpF66y-141" vertex="1">
                    <mxGeometry x="180" y="70" width="25.71" height="30" as="geometry"/>
                </mxCell>
                <mxCell id="52" value="" style="rounded=0;whiteSpace=wrap;html=1;fillColor=none;strokeColor=#A3A3A3;imageWidth=25;" parent="kNxxIQX6q6KvaHjpF66y-141" vertex="1">
                    <mxGeometry x="205.70999999999998" y="70" width="16.3" height="30" as="geometry"/>
                </mxCell>
                <mxCell id="53" value="" style="rounded=0;whiteSpace=wrap;html=1;fillColor=none;strokeColor=#A3A3A3;" parent="kNxxIQX6q6KvaHjpF66y-141" vertex="1">
                    <mxGeometry x="222" y="70" width="24" height="30" as="geometry"/>
                </mxCell>
                <mxCell id="55" value="" style="rounded=0;whiteSpace=wrap;html=1;fillColor=none;strokeColor=#A3A3A3;" parent="kNxxIQX6q6KvaHjpF66y-141" vertex="1">
                    <mxGeometry x="105" y="115" width="440" height="70" as="geometry"/>
                </mxCell>
                <mxCell id="106" value="" style="rounded=0;whiteSpace=wrap;html=1;fillColor=none;strokeColor=#A3A3A3;" parent="kNxxIQX6q6KvaHjpF66y-141" vertex="1">
                    <mxGeometry x="118" y="129" width="45" height="45" as="geometry"/>
                </mxCell>
                <mxCell id="107" value="" style="rounded=0;whiteSpace=wrap;html=1;fillColor=none;strokeColor=#A3A3A3;" parent="kNxxIQX6q6KvaHjpF66y-141" vertex="1">
                    <mxGeometry x="105" y="235" width="440" height="70" as="geometry"/>
                </mxCell>
                <mxCell id="108" value="" style="rounded=0;whiteSpace=wrap;html=1;fillColor=none;strokeColor=#A3A3A3;" parent="kNxxIQX6q6KvaHjpF66y-141" vertex="1">
                    <mxGeometry x="118" y="249" width="45" height="45" as="geometry"/>
                </mxCell>
                <mxCell id="124" value="" style="rounded=0;whiteSpace=wrap;html=1;fillColor=none;strokeColor=#A3A3A3;" parent="kNxxIQX6q6KvaHjpF66y-141" vertex="1">
                    <mxGeometry x="124" y="255" width="32" height="31" as="geometry"/>
                </mxCell>
                <mxCell id="128" value="" style="rounded=0;whiteSpace=wrap;html=1;fillColor=none;strokeColor=#A3A3A3;" parent="kNxxIQX6q6KvaHjpF66y-141" vertex="1">
                    <mxGeometry x="105" y="55" width="440" height="70" as="geometry"/>
                </mxCell>
                <mxCell id="131" value="" style="rounded=0;whiteSpace=wrap;html=1;fillColor=none;strokeColor=#A3A3A3;" parent="kNxxIQX6q6KvaHjpF66y-141" vertex="1">
                    <mxGeometry x="115.5" y="65.5" width="135" height="44.5" as="geometry"/>
                </mxCell>
                <mxCell id="138" value="" style="rounded=0;whiteSpace=wrap;html=1;fillColor=none;strokeColor=#A3A3A3;" parent="kNxxIQX6q6KvaHjpF66y-141" vertex="1">
                    <mxGeometry x="124" y="136" width="32" height="31" as="geometry"/>
                </mxCell>
                <mxCell id="iskRbFnMrTEnTFIFkzji-141" value="" style="rounded=0;whiteSpace=wrap;html=1;fillColor=none;strokeColor=#A3A3A3;" parent="kNxxIQX6q6KvaHjpF66y-141" vertex="1">
                    <mxGeometry x="105" y="115" width="440" height="370" as="geometry"/>
                </mxCell>
            </root>
        </mxGraphModel>
    </diagram>
    <diagram name="リスト表示1" id="28GqpgISlev73tq-Fr3T">
        <mxGraphModel dx="1167" dy="779" grid="1" gridSize="10" guides="1" tooltips="1" connect="1" arrows="1" fold="1" page="1" pageScale="1" pageWidth="827" pageHeight="1169" math="0" shadow="0">
            <root>
                <mxCell id="6uVQa-vzoG2pNKijxR58-0"/>
                <mxCell id="6uVQa-vzoG2pNKijxR58-1" parent="6uVQa-vzoG2pNKijxR58-0"/>
                <mxCell id="6uVQa-vzoG2pNKijxR58-60" value="" style="rounded=0;whiteSpace=wrap;html=1;fillColor=default;strokeColor=none;" parent="6uVQa-vzoG2pNKijxR58-1" vertex="1">
                    <mxGeometry width="650" height="520" as="geometry"/>
                </mxCell>
                <mxCell id="6uVQa-vzoG2pNKijxR58-2" value="" style="rounded=0;whiteSpace=wrap;html=1;fillColor=none;strokeColor=#A3A3A3;" parent="6uVQa-vzoG2pNKijxR58-1" vertex="1">
                    <mxGeometry x="85" y="50" width="460" height="440" as="geometry"/>
                </mxCell>
                <mxCell id="6uVQa-vzoG2pNKijxR58-61" style="edgeStyle=none;html=1;entryX=0.5;entryY=0;entryDx=0;entryDy=0;" parent="6uVQa-vzoG2pNKijxR58-1" source="6uVQa-vzoG2pNKijxR58-62" target="6uVQa-vzoG2pNKijxR58-48" edge="1">
                    <mxGeometry relative="1" as="geometry"/>
                </mxCell>
                <mxCell id="6uVQa-vzoG2pNKijxR58-62" value=".year" style="rounded=0;whiteSpace=wrap;html=1;fillColor=none;strokeColor=light-dark(#a3a3a3, #ededed);fontStyle=0;fontColor=#757575;" parent="6uVQa-vzoG2pNKijxR58-1" vertex="1">
                    <mxGeometry x="150" y="20" width="45" height="20" as="geometry"/>
                </mxCell>
                <mxCell id="6uVQa-vzoG2pNKijxR58-63" style="edgeStyle=none;html=1;exitX=0.25;exitY=1;exitDx=0;exitDy=0;entryX=0.5;entryY=0;entryDx=0;entryDy=0;" parent="6uVQa-vzoG2pNKijxR58-1" source="6uVQa-vzoG2pNKijxR58-64" target="6uVQa-vzoG2pNKijxR58-50" edge="1">
                    <mxGeometry relative="1" as="geometry"/>
                </mxCell>
                <mxCell id="6uVQa-vzoG2pNKijxR58-64" value=".month" style="rounded=0;whiteSpace=wrap;html=1;fillColor=none;strokeColor=light-dark(#a3a3a3, #ededed);fontStyle=0;fontColor=#757575;" parent="6uVQa-vzoG2pNKijxR58-1" vertex="1">
                    <mxGeometry x="210" y="20" width="45" height="20" as="geometry"/>
                </mxCell>
                <mxCell id="6uVQa-vzoG2pNKijxR58-67" value=".week" style="rounded=0;whiteSpace=wrap;html=1;fillColor=none;strokeColor=light-dark(#a3a3a3, #ededed);fontStyle=0;fontColor=#757575;" parent="6uVQa-vzoG2pNKijxR58-1" vertex="1">
                    <mxGeometry x="560" y="125" width="45" height="20" as="geometry"/>
                </mxCell>
                <mxCell id="6uVQa-vzoG2pNKijxR58-68" style="edgeStyle=none;html=1;entryX=1.001;entryY=0.362;entryDx=0;entryDy=0;entryPerimeter=0;" parent="6uVQa-vzoG2pNKijxR58-1" source="6uVQa-vzoG2pNKijxR58-67" target="6uVQa-vzoG2pNKijxR58-54" edge="1">
                    <mxGeometry relative="1" as="geometry"/>
                </mxCell>
                <mxCell id="6uVQa-vzoG2pNKijxR58-72" value=".cap" style="rounded=0;whiteSpace=wrap;html=1;fillColor=none;strokeColor=light-dark(#a3a3a3, #ededed);fontStyle=0;fontColor=#757575;" parent="6uVQa-vzoG2pNKijxR58-1" vertex="1">
                    <mxGeometry x="20" y="95" width="45" height="20" as="geometry"/>
                </mxCell>
                <mxCell id="6uVQa-vzoG2pNKijxR58-74" value=".day" style="rounded=0;whiteSpace=wrap;html=1;fillColor=none;strokeColor=light-dark(#a3a3a3, #ededed);fontStyle=0;fontColor=#757575;" parent="6uVQa-vzoG2pNKijxR58-1" vertex="1">
                    <mxGeometry x="20" y="170" width="45" height="20" as="geometry"/>
                </mxCell>
                <mxCell id="6uVQa-vzoG2pNKijxR58-75" style="edgeStyle=none;html=1;entryX=1;entryY=0.25;entryDx=0;entryDy=0;" parent="6uVQa-vzoG2pNKijxR58-1" source="6uVQa-vzoG2pNKijxR58-76" target="6uVQa-vzoG2pNKijxR58-57" edge="1">
                    <mxGeometry relative="1" as="geometry"/>
                </mxCell>
                <mxCell id="6uVQa-vzoG2pNKijxR58-76" value="header" style="rounded=0;whiteSpace=wrap;html=1;fillColor=none;strokeColor=light-dark(#a3a3a3, #ededed);fontStyle=0;fontColor=#757575;" parent="6uVQa-vzoG2pNKijxR58-1" vertex="1">
                    <mxGeometry x="560" y="30" width="45" height="20" as="geometry"/>
                </mxCell>
                <mxCell id="6uVQa-vzoG2pNKijxR58-77" value="h2" style="rounded=0;whiteSpace=wrap;html=1;fillColor=none;strokeColor=light-dark(#a3a3a3, #ededed);fontStyle=0;fontColor=#757575;" parent="6uVQa-vzoG2pNKijxR58-1" vertex="1">
                    <mxGeometry x="90" y="20" width="45" height="20" as="geometry"/>
                </mxCell>
                <mxCell id="6uVQa-vzoG2pNKijxR58-78" style="edgeStyle=none;html=1;entryX=0.094;entryY=0.001;entryDx=0;entryDy=0;entryPerimeter=0;" parent="6uVQa-vzoG2pNKijxR58-1" source="6uVQa-vzoG2pNKijxR58-77" target="6uVQa-vzoG2pNKijxR58-58" edge="1">
                    <mxGeometry relative="1" as="geometry"/>
                </mxCell>
                <mxCell id="6uVQa-vzoG2pNKijxR58-79" value=".calendar" style="rounded=0;whiteSpace=wrap;html=1;fillColor=none;strokeColor=light-dark(#a3a3a3, #ededed);fontStyle=0;fontColor=#757575;" parent="6uVQa-vzoG2pNKijxR58-1" vertex="1">
                    <mxGeometry x="20" y="30" width="60" height="20" as="geometry"/>
                </mxCell>
                <mxCell id="6uVQa-vzoG2pNKijxR58-80" style="edgeStyle=none;html=1;entryX=0.001;entryY=0.043;entryDx=0;entryDy=0;entryPerimeter=0;" parent="6uVQa-vzoG2pNKijxR58-1" source="6uVQa-vzoG2pNKijxR58-79" target="6uVQa-vzoG2pNKijxR58-2" edge="1">
                    <mxGeometry relative="1" as="geometry"/>
                </mxCell>
                <mxCell id="6uVQa-vzoG2pNKijxR58-83" value=".month" style="rounded=0;whiteSpace=wrap;html=1;fillColor=none;strokeColor=light-dark(#a3a3a3, #ededed);fontStyle=0;fontColor=#757575;" parent="6uVQa-vzoG2pNKijxR58-1" vertex="1">
                    <mxGeometry x="560.0000000000002" y="90" width="45" height="20" as="geometry"/>
                </mxCell>
                <mxCell id="6uVQa-vzoG2pNKijxR58-84" style="edgeStyle=none;html=1;entryX=1.002;entryY=0.036;entryDx=0;entryDy=0;entryPerimeter=0;" parent="6uVQa-vzoG2pNKijxR58-1" source="6uVQa-vzoG2pNKijxR58-83" target="6uVQa-vzoG2pNKijxR58-59" edge="1">
                    <mxGeometry relative="1" as="geometry"/>
                </mxCell>
                <mxCell id="6uVQa-vzoG2pNKijxR58-11" value="" style="rounded=0;whiteSpace=wrap;html=1;fontSize=26;" parent="6uVQa-vzoG2pNKijxR58-1" vertex="1">
                    <mxGeometry x="100" y="60" width="430" height="60" as="geometry"/>
                </mxCell>
                <mxCell id="6uVQa-vzoG2pNKijxR58-12" value="2025年9月" style="text;html=1;align=center;verticalAlign=middle;resizable=0;points=[];autosize=1;strokeColor=none;fillColor=none;fontSize=26;" parent="6uVQa-vzoG2pNKijxR58-1" vertex="1">
                    <mxGeometry x="100" y="66" width="150" height="40" as="geometry"/>
                </mxCell>
                <mxCell id="6uVQa-vzoG2pNKijxR58-13" value="" style="rounded=0;whiteSpace=wrap;html=1;fontSize=26;fontColor=light-dark(#ff0000, #ededed);textShadow=1;" parent="6uVQa-vzoG2pNKijxR58-1" vertex="1">
                    <mxGeometry x="100" y="120" width="430" height="50" as="geometry"/>
                </mxCell>
                <mxCell id="6uVQa-vzoG2pNKijxR58-14" value="1" style="rounded=0;whiteSpace=wrap;html=1;fontSize=26;fontColor=light-dark(#000000,#EDEDED);textShadow=1;strokeColor=none;fillColor=none;" parent="6uVQa-vzoG2pNKijxR58-1" vertex="1">
                    <mxGeometry x="100" y="120" width="40" height="50" as="geometry"/>
                </mxCell>
                <mxCell id="6uVQa-vzoG2pNKijxR58-48" value="" style="rounded=0;whiteSpace=wrap;html=1;fillColor=none;strokeColor=#A3A3A3;" parent="6uVQa-vzoG2pNKijxR58-1" vertex="1">
                    <mxGeometry x="110" y="70" width="60" height="30" as="geometry"/>
                </mxCell>
                <mxCell id="6uVQa-vzoG2pNKijxR58-49" value="" style="rounded=0;whiteSpace=wrap;html=1;fillColor=none;strokeColor=#A3A3A3;" parent="6uVQa-vzoG2pNKijxR58-1" vertex="1">
                    <mxGeometry x="170" y="70" width="25.71" height="30" as="geometry"/>
                </mxCell>
                <mxCell id="6uVQa-vzoG2pNKijxR58-50" value="" style="rounded=0;whiteSpace=wrap;html=1;fillColor=none;strokeColor=#A3A3A3;imageWidth=25;" parent="6uVQa-vzoG2pNKijxR58-1" vertex="1">
                    <mxGeometry x="195.70999999999998" y="70" width="16.3" height="30" as="geometry"/>
                </mxCell>
                <mxCell id="6uVQa-vzoG2pNKijxR58-51" value="" style="rounded=0;whiteSpace=wrap;html=1;fillColor=none;strokeColor=#A3A3A3;" parent="6uVQa-vzoG2pNKijxR58-1" vertex="1">
                    <mxGeometry x="212" y="70" width="24" height="30" as="geometry"/>
                </mxCell>
                <mxCell id="6uVQa-vzoG2pNKijxR58-57" value="" style="rounded=0;whiteSpace=wrap;html=1;fillColor=none;strokeColor=#A3A3A3;" parent="6uVQa-vzoG2pNKijxR58-1" vertex="1">
                    <mxGeometry x="95" y="55" width="440" height="70" as="geometry"/>
                </mxCell>
                <mxCell id="6uVQa-vzoG2pNKijxR58-58" value="" style="rounded=0;whiteSpace=wrap;html=1;fillColor=none;strokeColor=#A3A3A3;" parent="6uVQa-vzoG2pNKijxR58-1" vertex="1">
                    <mxGeometry x="105.5" y="65.5" width="135" height="44.5" as="geometry"/>
                </mxCell>
                <mxCell id="6uVQa-vzoG2pNKijxR58-5" value="月" style="rounded=0;whiteSpace=wrap;html=1;fontSize=26;fontColor=light-dark(#000000,#EDEDED);textShadow=1;fillColor=none;strokeColor=none;" parent="6uVQa-vzoG2pNKijxR58-1" vertex="1">
                    <mxGeometry x="135" y="120" width="45.71" height="50" as="geometry"/>
                </mxCell>
                <mxCell id="R-96XlTKd3N11zsCQrz8-0" value="" style="rounded=0;whiteSpace=wrap;html=1;fontSize=26;fontColor=light-dark(#ff0000, #ededed);textShadow=1;" parent="6uVQa-vzoG2pNKijxR58-1" vertex="1">
                    <mxGeometry x="100" y="170" width="430" height="50" as="geometry"/>
                </mxCell>
                <mxCell id="R-96XlTKd3N11zsCQrz8-1" value="2" style="rounded=0;whiteSpace=wrap;html=1;fontSize=26;fontColor=light-dark(#000000,#EDEDED);textShadow=1;strokeColor=none;fillColor=none;" parent="6uVQa-vzoG2pNKijxR58-1" vertex="1">
                    <mxGeometry x="100" y="170" width="40" height="50" as="geometry"/>
                </mxCell>
                <mxCell id="R-96XlTKd3N11zsCQrz8-2" value="&lt;span style=&quot;color: rgb(0, 0, 0);&quot;&gt;火&lt;/span&gt;" style="rounded=0;whiteSpace=wrap;html=1;fontSize=26;fontColor=light-dark(#000000,#EDEDED);textShadow=1;fillColor=none;strokeColor=none;" parent="6uVQa-vzoG2pNKijxR58-1" vertex="1">
                    <mxGeometry x="135" y="170" width="45.71" height="50" as="geometry"/>
                </mxCell>
                <mxCell id="R-96XlTKd3N11zsCQrz8-3" value="" style="rounded=0;whiteSpace=wrap;html=1;fontSize=26;fontColor=light-dark(#ff0000, #ededed);textShadow=1;" parent="6uVQa-vzoG2pNKijxR58-1" vertex="1">
                    <mxGeometry x="100" y="220" width="430" height="50" as="geometry"/>
                </mxCell>
                <mxCell id="R-96XlTKd3N11zsCQrz8-4" value="3" style="rounded=0;whiteSpace=wrap;html=1;fontSize=26;fontColor=light-dark(#000000,#EDEDED);textShadow=1;strokeColor=none;fillColor=none;" parent="6uVQa-vzoG2pNKijxR58-1" vertex="1">
                    <mxGeometry x="100" y="220" width="40" height="50" as="geometry"/>
                </mxCell>
                <mxCell id="R-96XlTKd3N11zsCQrz8-5" value="&lt;span style=&quot;color: rgb(0, 0, 0);&quot;&gt;水&lt;/span&gt;" style="rounded=0;whiteSpace=wrap;html=1;fontSize=26;fontColor=light-dark(#000000,#EDEDED);textShadow=1;fillColor=none;strokeColor=none;" parent="6uVQa-vzoG2pNKijxR58-1" vertex="1">
                    <mxGeometry x="135" y="220" width="45.71" height="50" as="geometry"/>
                </mxCell>
                <mxCell id="R-96XlTKd3N11zsCQrz8-6" value="" style="rounded=0;whiteSpace=wrap;html=1;fontSize=26;fontColor=light-dark(#ff0000, #ededed);textShadow=1;" parent="6uVQa-vzoG2pNKijxR58-1" vertex="1">
                    <mxGeometry x="100" y="319" width="430" height="50" as="geometry"/>
                </mxCell>
                <mxCell id="R-96XlTKd3N11zsCQrz8-7" value="5" style="rounded=0;whiteSpace=wrap;html=1;fontSize=26;fontColor=light-dark(#000000,#EDEDED);textShadow=1;strokeColor=none;fillColor=none;" parent="6uVQa-vzoG2pNKijxR58-1" vertex="1">
                    <mxGeometry x="100" y="319" width="40" height="50" as="geometry"/>
                </mxCell>
                <mxCell id="R-96XlTKd3N11zsCQrz8-8" value="&lt;span style=&quot;color: rgb(0, 0, 0);&quot;&gt;金&lt;/span&gt;" style="rounded=0;whiteSpace=wrap;html=1;fontSize=26;fontColor=light-dark(#000000,#EDEDED);textShadow=1;fillColor=none;strokeColor=none;" parent="6uVQa-vzoG2pNKijxR58-1" vertex="1">
                    <mxGeometry x="135" y="319" width="45.71" height="50" as="geometry"/>
                </mxCell>
                <mxCell id="R-96XlTKd3N11zsCQrz8-9" value="" style="rounded=0;whiteSpace=wrap;html=1;fontSize=26;fontColor=light-dark(#ff0000, #ededed);textShadow=1;" parent="6uVQa-vzoG2pNKijxR58-1" vertex="1">
                    <mxGeometry x="100" y="369" width="430" height="50" as="geometry"/>
                </mxCell>
                <mxCell id="R-96XlTKd3N11zsCQrz8-10" value="6" style="rounded=0;whiteSpace=wrap;html=1;fontSize=26;fontColor=light-dark(#0000FF,#EDEDED);textShadow=1;strokeColor=none;fillColor=none;" parent="6uVQa-vzoG2pNKijxR58-1" vertex="1">
                    <mxGeometry x="100" y="369" width="40" height="50" as="geometry"/>
                </mxCell>
                <mxCell id="R-96XlTKd3N11zsCQrz8-11" value="&lt;span style=&quot;color: rgb(0, 0, 255);&quot;&gt;土&lt;/span&gt;" style="rounded=0;whiteSpace=wrap;html=1;fontSize=26;fontColor=light-dark(#000000,#EDEDED);textShadow=1;fillColor=none;strokeColor=none;" parent="6uVQa-vzoG2pNKijxR58-1" vertex="1">
                    <mxGeometry x="135" y="369" width="45.71" height="50" as="geometry"/>
                </mxCell>
                <mxCell id="R-96XlTKd3N11zsCQrz8-12" value="" style="rounded=0;whiteSpace=wrap;html=1;fontSize=26;fontColor=light-dark(#ff0000, #ededed);textShadow=1;" parent="6uVQa-vzoG2pNKijxR58-1" vertex="1">
                    <mxGeometry x="100" y="419" width="430" height="50" as="geometry"/>
                </mxCell>
                <mxCell id="R-96XlTKd3N11zsCQrz8-13" value="7" style="rounded=0;whiteSpace=wrap;html=1;fontSize=26;fontColor=light-dark(#FF0000,#EDEDED);textShadow=1;strokeColor=none;fillColor=none;align=center;verticalAlign=middle;fontFamily=Helvetica;" parent="6uVQa-vzoG2pNKijxR58-1" vertex="1">
                    <mxGeometry x="100" y="419" width="40" height="50" as="geometry"/>
                </mxCell>
                <mxCell id="R-96XlTKd3N11zsCQrz8-14" value="&lt;span style=&quot;color: rgb(255, 0, 0);&quot;&gt;日&lt;/span&gt;" style="rounded=0;whiteSpace=wrap;html=1;fontSize=26;fontColor=light-dark(#000000,#EDEDED);textShadow=1;fillColor=none;strokeColor=none;" parent="6uVQa-vzoG2pNKijxR58-1" vertex="1">
                    <mxGeometry x="135" y="419" width="45.71" height="50" as="geometry"/>
                </mxCell>
                <mxCell id="R-96XlTKd3N11zsCQrz8-16" value="" style="rounded=0;whiteSpace=wrap;html=1;fontSize=26;fontColor=light-dark(#ff0000, #ededed);textShadow=1;" parent="6uVQa-vzoG2pNKijxR58-1" vertex="1">
                    <mxGeometry x="100" y="269" width="430" height="50" as="geometry"/>
                </mxCell>
                <mxCell id="R-96XlTKd3N11zsCQrz8-17" value="4" style="rounded=0;whiteSpace=wrap;html=1;fontSize=26;fontColor=light-dark(#000000,#EDEDED);textShadow=1;strokeColor=none;fillColor=none;" parent="6uVQa-vzoG2pNKijxR58-1" vertex="1">
                    <mxGeometry x="100" y="269" width="40" height="50" as="geometry"/>
                </mxCell>
                <mxCell id="R-96XlTKd3N11zsCQrz8-18" value="&lt;span style=&quot;color: rgb(0, 0, 0);&quot;&gt;水&lt;/span&gt;" style="rounded=0;whiteSpace=wrap;html=1;fontSize=26;fontColor=light-dark(#000000,#EDEDED);textShadow=1;fillColor=none;strokeColor=none;" parent="6uVQa-vzoG2pNKijxR58-1" vertex="1">
                    <mxGeometry x="135" y="269" width="45.71" height="50" as="geometry"/>
                </mxCell>
                <mxCell id="6uVQa-vzoG2pNKijxR58-54" value="" style="rounded=0;whiteSpace=wrap;html=1;fillColor=none;strokeColor=#A3A3A3;" parent="6uVQa-vzoG2pNKijxR58-1" vertex="1">
                    <mxGeometry x="95" y="115" width="440" height="60" as="geometry"/>
                </mxCell>
                <mxCell id="6uVQa-vzoG2pNKijxR58-59" value="" style="rounded=0;whiteSpace=wrap;html=1;fillColor=none;strokeColor=#A3A3A3;" parent="6uVQa-vzoG2pNKijxR58-1" vertex="1">
                    <mxGeometry x="90" y="115" width="450" height="365" as="geometry"/>
                </mxCell>
                <mxCell id="6uVQa-vzoG2pNKijxR58-56" value="" style="rounded=0;whiteSpace=wrap;html=1;fillColor=none;strokeColor=#A3A3A3;" parent="6uVQa-vzoG2pNKijxR58-1" vertex="1">
                    <mxGeometry x="105" y="125" width="420" height="40" as="geometry"/>
                </mxCell>
                <mxCell id="6uVQa-vzoG2pNKijxR58-55" value="" style="rounded=0;whiteSpace=wrap;html=1;fillColor=none;strokeColor=#A3A3A3;" parent="6uVQa-vzoG2pNKijxR58-1" vertex="1">
                    <mxGeometry x="110" y="130" width="20" height="30" as="geometry"/>
                </mxCell>
                <mxCell id="6uVQa-vzoG2pNKijxR58-73" style="edgeStyle=none;html=1;entryX=0;entryY=0.75;entryDx=0;entryDy=0;" parent="6uVQa-vzoG2pNKijxR58-1" source="6uVQa-vzoG2pNKijxR58-74" target="6uVQa-vzoG2pNKijxR58-56" edge="1">
                    <mxGeometry relative="1" as="geometry"/>
                </mxCell>
                <mxCell id="6uVQa-vzoG2pNKijxR58-71" style="edgeStyle=none;html=1;entryX=0;entryY=0.25;entryDx=0;entryDy=0;" parent="6uVQa-vzoG2pNKijxR58-1" source="6uVQa-vzoG2pNKijxR58-72" target="6uVQa-vzoG2pNKijxR58-55" edge="1">
                    <mxGeometry relative="1" as="geometry"/>
                </mxCell>
                <mxCell id="zTAW9-ZkjYGIFvCTz5Tx-2" value="" style="rounded=0;whiteSpace=wrap;html=1;fillColor=none;strokeColor=#A3A3A3;" parent="6uVQa-vzoG2pNKijxR58-1" vertex="1">
                    <mxGeometry x="130" y="130" width="50" height="30" as="geometry"/>
                </mxCell>
                <mxCell id="zTAW9-ZkjYGIFvCTz5Tx-3" style="edgeStyle=none;html=1;entryX=0;entryY=0.75;entryDx=0;entryDy=0;" parent="6uVQa-vzoG2pNKijxR58-1" source="zTAW9-ZkjYGIFvCTz5Tx-4" target="zTAW9-ZkjYGIFvCTz5Tx-2" edge="1">
                    <mxGeometry relative="1" as="geometry"/>
                </mxCell>
                <mxCell id="zTAW9-ZkjYGIFvCTz5Tx-4" value=".w_cap" style="rounded=0;whiteSpace=wrap;html=1;fillColor=none;strokeColor=light-dark(#a3a3a3, #ededed);fontStyle=0;fontColor=#757575;" parent="6uVQa-vzoG2pNKijxR58-1" vertex="1">
                    <mxGeometry x="20" y="135" width="45" height="20" as="geometry"/>
                </mxCell>
                <mxCell id="zTAW9-ZkjYGIFvCTz5Tx-5" value="" style="rounded=0;whiteSpace=wrap;html=1;fillColor=none;strokeColor=#A3A3A3;" parent="6uVQa-vzoG2pNKijxR58-1" vertex="1">
                    <mxGeometry x="180.71" y="130" width="339.29" height="30" as="geometry"/>
                </mxCell>
                <mxCell id="zTAW9-ZkjYGIFvCTz5Tx-6" style="edgeStyle=none;html=1;entryX=1;entryY=0.75;entryDx=0;entryDy=0;" parent="6uVQa-vzoG2pNKijxR58-1" source="zTAW9-ZkjYGIFvCTz5Tx-7" target="zTAW9-ZkjYGIFvCTz5Tx-5" edge="1">
                    <mxGeometry relative="1" as="geometry"/>
                </mxCell>
                <mxCell id="zTAW9-ZkjYGIFvCTz5Tx-7" value=".contents" style="rounded=0;whiteSpace=wrap;html=1;fillColor=none;strokeColor=light-dark(#a3a3a3, #ededed);fontStyle=0;fontColor=#757575;" parent="6uVQa-vzoG2pNKijxR58-1" vertex="1">
                    <mxGeometry x="560" y="160" width="60" height="20" as="geometry"/>
                </mxCell>
            </root>
        </mxGraphModel>
    </diagram>
    <diagram id="NCi_7EJjQa47h99nl7H6" name="リスト表示2">
        <mxGraphModel dx="1167" dy="779" grid="1" gridSize="10" guides="1" tooltips="1" connect="1" arrows="1" fold="1" page="1" pageScale="1" pageWidth="827" pageHeight="1169" math="0" shadow="0">
            <root>
                <mxCell id="0"/>
                <mxCell id="1" parent="0"/>
                <mxCell id="P5ny5PPakREu4iZ9W09n-1" value="" style="rounded=0;whiteSpace=wrap;html=1;fillColor=default;strokeColor=none;" parent="1" vertex="1">
                    <mxGeometry width="650" height="560" as="geometry"/>
                </mxCell>
                <mxCell id="P5ny5PPakREu4iZ9W09n-2" value="" style="rounded=0;whiteSpace=wrap;html=1;fillColor=none;strokeColor=#A3A3A3;" parent="1" vertex="1">
                    <mxGeometry x="85" y="90" width="460" height="440" as="geometry"/>
                </mxCell>
                <mxCell id="P5ny5PPakREu4iZ9W09n-3" value="" style="rounded=0;whiteSpace=wrap;html=1;fontSize=26;fontColor=light-dark(#ff0000, #ededed);textShadow=1;" parent="1" vertex="1">
                    <mxGeometry x="100" y="170" width="430" height="50" as="geometry"/>
                </mxCell>
                <mxCell id="P5ny5PPakREu4iZ9W09n-4" value="2" style="rounded=0;whiteSpace=wrap;html=1;fontSize=26;fontColor=light-dark(#000000,#EDEDED);textShadow=1;strokeColor=none;fillColor=none;" parent="1" vertex="1">
                    <mxGeometry x="190" y="170" width="40" height="50" as="geometry"/>
                </mxCell>
                <mxCell id="P5ny5PPakREu4iZ9W09n-5" value="&lt;span style=&quot;color: rgb(0, 0, 0);&quot;&gt;火&lt;/span&gt;" style="rounded=0;whiteSpace=wrap;html=1;fontSize=26;fontColor=light-dark(#000000,#EDEDED);textShadow=1;fillColor=none;strokeColor=none;" parent="1" vertex="1">
                    <mxGeometry x="220" y="170" width="45.71" height="50" as="geometry"/>
                </mxCell>
                <mxCell id="P5ny5PPakREu4iZ9W09n-6" value="2025/9" style="text;html=1;align=center;verticalAlign=middle;resizable=0;points=[];autosize=1;strokeColor=none;fillColor=none;fontSize=26;" parent="1" vertex="1">
                    <mxGeometry x="100" y="175" width="100" height="40" as="geometry"/>
                </mxCell>
                <mxCell id="P5ny5PPakREu4iZ9W09n-7" value="" style="rounded=0;whiteSpace=wrap;html=1;fontSize=26;fontColor=light-dark(#ff0000, #ededed);textShadow=1;" parent="1" vertex="1">
                    <mxGeometry x="100" y="120" width="430" height="50" as="geometry"/>
                </mxCell>
                <mxCell id="P5ny5PPakREu4iZ9W09n-8" value="1" style="rounded=0;whiteSpace=wrap;html=1;fontSize=26;fontColor=light-dark(#000000,#EDEDED);textShadow=1;strokeColor=none;fillColor=none;" parent="1" vertex="1">
                    <mxGeometry x="190" y="120" width="40" height="50" as="geometry"/>
                </mxCell>
                <mxCell id="P5ny5PPakREu4iZ9W09n-9" value="&lt;span style=&quot;color: rgb(0, 0, 0);&quot;&gt;月&lt;/span&gt;" style="rounded=0;whiteSpace=wrap;html=1;fontSize=26;fontColor=light-dark(#000000,#EDEDED);textShadow=1;fillColor=none;strokeColor=none;" parent="1" vertex="1">
                    <mxGeometry x="220" y="120" width="45.71" height="50" as="geometry"/>
                </mxCell>
                <mxCell id="P5ny5PPakREu4iZ9W09n-10" value="2025/9" style="text;html=1;align=center;verticalAlign=middle;resizable=0;points=[];autosize=1;strokeColor=none;fillColor=none;fontSize=26;" parent="1" vertex="1">
                    <mxGeometry x="100" y="125" width="100" height="40" as="geometry"/>
                </mxCell>
                <mxCell id="P5ny5PPakREu4iZ9W09n-11" value="" style="rounded=0;whiteSpace=wrap;html=1;fontSize=26;fontColor=light-dark(#ff0000, #ededed);textShadow=1;" parent="1" vertex="1">
                    <mxGeometry x="100" y="220" width="430" height="50" as="geometry"/>
                </mxCell>
                <mxCell id="P5ny5PPakREu4iZ9W09n-12" value="3" style="rounded=0;whiteSpace=wrap;html=1;fontSize=26;fontColor=light-dark(#000000,#EDEDED);textShadow=1;strokeColor=none;fillColor=none;" parent="1" vertex="1">
                    <mxGeometry x="190" y="220" width="40" height="50" as="geometry"/>
                </mxCell>
                <mxCell id="P5ny5PPakREu4iZ9W09n-13" value="&lt;span style=&quot;color: rgb(0, 0, 0);&quot;&gt;水&lt;/span&gt;" style="rounded=0;whiteSpace=wrap;html=1;fontSize=26;fontColor=light-dark(#000000,#EDEDED);textShadow=1;fillColor=none;strokeColor=none;" parent="1" vertex="1">
                    <mxGeometry x="220" y="220" width="45.71" height="50" as="geometry"/>
                </mxCell>
                <mxCell id="P5ny5PPakREu4iZ9W09n-14" value="2025/9" style="text;html=1;align=center;verticalAlign=middle;resizable=0;points=[];autosize=1;strokeColor=none;fillColor=none;fontSize=26;" parent="1" vertex="1">
                    <mxGeometry x="100" y="225" width="100" height="40" as="geometry"/>
                </mxCell>
                <mxCell id="P5ny5PPakREu4iZ9W09n-15" value="" style="rounded=0;whiteSpace=wrap;html=1;fontSize=26;fontColor=light-dark(#ff0000, #ededed);textShadow=1;" parent="1" vertex="1">
                    <mxGeometry x="100" y="270" width="430" height="50" as="geometry"/>
                </mxCell>
                <mxCell id="P5ny5PPakREu4iZ9W09n-16" value="4" style="rounded=0;whiteSpace=wrap;html=1;fontSize=26;fontColor=light-dark(#000000,#EDEDED);textShadow=1;strokeColor=none;fillColor=none;" parent="1" vertex="1">
                    <mxGeometry x="190" y="270" width="40" height="50" as="geometry"/>
                </mxCell>
                <mxCell id="P5ny5PPakREu4iZ9W09n-17" value="&lt;span style=&quot;color: rgb(0, 0, 0);&quot;&gt;木&lt;/span&gt;" style="rounded=0;whiteSpace=wrap;html=1;fontSize=26;fontColor=light-dark(#000000,#EDEDED);textShadow=1;fillColor=none;strokeColor=none;" parent="1" vertex="1">
                    <mxGeometry x="220" y="270" width="45.71" height="50" as="geometry"/>
                </mxCell>
                <mxCell id="P5ny5PPakREu4iZ9W09n-18" value="2025/9" style="text;html=1;align=center;verticalAlign=middle;resizable=0;points=[];autosize=1;strokeColor=none;fillColor=none;fontSize=26;" parent="1" vertex="1">
                    <mxGeometry x="100" y="275" width="100" height="40" as="geometry"/>
                </mxCell>
                <mxCell id="P5ny5PPakREu4iZ9W09n-19" value="" style="rounded=0;whiteSpace=wrap;html=1;fontSize=26;fontColor=light-dark(#ff0000, #ededed);textShadow=1;" parent="1" vertex="1">
                    <mxGeometry x="100" y="320" width="430" height="50" as="geometry"/>
                </mxCell>
                <mxCell id="P5ny5PPakREu4iZ9W09n-20" value="5" style="rounded=0;whiteSpace=wrap;html=1;fontSize=26;fontColor=light-dark(#000000,#EDEDED);textShadow=1;strokeColor=none;fillColor=none;" parent="1" vertex="1">
                    <mxGeometry x="190" y="320" width="40" height="50" as="geometry"/>
                </mxCell>
                <mxCell id="P5ny5PPakREu4iZ9W09n-21" value="&lt;span style=&quot;color: rgb(0, 0, 0);&quot;&gt;金&lt;/span&gt;" style="rounded=0;whiteSpace=wrap;html=1;fontSize=26;fontColor=light-dark(#000000,#EDEDED);textShadow=1;fillColor=none;strokeColor=none;" parent="1" vertex="1">
                    <mxGeometry x="220" y="320" width="45.71" height="50" as="geometry"/>
                </mxCell>
                <mxCell id="P5ny5PPakREu4iZ9W09n-22" value="2025/9" style="text;html=1;align=center;verticalAlign=middle;resizable=0;points=[];autosize=1;strokeColor=none;fillColor=none;fontSize=26;" parent="1" vertex="1">
                    <mxGeometry x="100" y="325" width="100" height="40" as="geometry"/>
                </mxCell>
                <mxCell id="P5ny5PPakREu4iZ9W09n-23" value="" style="rounded=0;whiteSpace=wrap;html=1;fontSize=26;fontColor=light-dark(#0000FF,#EDEDED);textShadow=1;" parent="1" vertex="1">
                    <mxGeometry x="100" y="370" width="430" height="50" as="geometry"/>
                </mxCell>
                <mxCell id="P5ny5PPakREu4iZ9W09n-24" value="6" style="rounded=0;whiteSpace=wrap;html=1;fontSize=26;fontColor=light-dark(#0000FF,#EDEDED);textShadow=1;strokeColor=none;fillColor=none;" parent="1" vertex="1">
                    <mxGeometry x="190" y="370" width="40" height="50" as="geometry"/>
                </mxCell>
                <mxCell id="P5ny5PPakREu4iZ9W09n-25" value="&lt;span style=&quot;&quot;&gt;土&lt;/span&gt;" style="rounded=0;whiteSpace=wrap;html=1;fontSize=26;fontColor=light-dark(#0000FF,#EDEDED);textShadow=1;fillColor=none;strokeColor=none;" parent="1" vertex="1">
                    <mxGeometry x="220" y="370" width="45.71" height="50" as="geometry"/>
                </mxCell>
                <mxCell id="P5ny5PPakREu4iZ9W09n-26" value="2025/9" style="text;html=1;align=center;verticalAlign=middle;resizable=0;points=[];autosize=1;strokeColor=none;fillColor=none;fontSize=26;fontColor=light-dark(#0000FF,#EDEDED);" parent="1" vertex="1">
                    <mxGeometry x="100" y="375" width="100" height="40" as="geometry"/>
                </mxCell>
                <mxCell id="P5ny5PPakREu4iZ9W09n-27" value="" style="rounded=0;whiteSpace=wrap;html=1;fontSize=26;fontColor=light-dark(#FF0000,#EDEDED);textShadow=1;" parent="1" vertex="1">
                    <mxGeometry x="100" y="420" width="430" height="50" as="geometry"/>
                </mxCell>
                <mxCell id="P5ny5PPakREu4iZ9W09n-28" value="7" style="rounded=0;whiteSpace=wrap;html=1;fontSize=26;fontColor=light-dark(#FF0000,#EDEDED);textShadow=1;strokeColor=none;fillColor=none;" parent="1" vertex="1">
                    <mxGeometry x="190" y="420" width="40" height="50" as="geometry"/>
                </mxCell>
                <mxCell id="P5ny5PPakREu4iZ9W09n-29" value="&lt;span style=&quot;&quot;&gt;日&lt;/span&gt;" style="rounded=0;whiteSpace=wrap;html=1;fontSize=26;fontColor=light-dark(#FF0000,#EDEDED);textShadow=1;fillColor=none;strokeColor=none;" parent="1" vertex="1">
                    <mxGeometry x="220" y="420" width="45.71" height="50" as="geometry"/>
                </mxCell>
                <mxCell id="P5ny5PPakREu4iZ9W09n-30" value="2025/9" style="text;html=1;align=center;verticalAlign=middle;resizable=0;points=[];autosize=1;strokeColor=none;fillColor=none;fontSize=26;fontColor=light-dark(#FF0000,#EDEDED);" parent="1" vertex="1">
                    <mxGeometry x="100" y="425" width="100" height="40" as="geometry"/>
                </mxCell>
                <mxCell id="P5ny5PPakREu4iZ9W09n-31" value="" style="rounded=0;whiteSpace=wrap;html=1;fontSize=26;" parent="1" vertex="1">
                    <mxGeometry x="100" y="110" width="430" height="10" as="geometry"/>
                </mxCell>
                <mxCell id="P5ny5PPakREu4iZ9W09n-32" value="" style="rounded=0;whiteSpace=wrap;html=1;fillColor=none;strokeColor=#A3A3A3;" parent="1" vertex="1">
                    <mxGeometry x="95" y="100" width="440" height="20" as="geometry"/>
                </mxCell>
                <mxCell id="P5ny5PPakREu4iZ9W09n-33" style="edgeStyle=none;html=1;entryX=1;entryY=0.25;entryDx=0;entryDy=0;" parent="1" source="P5ny5PPakREu4iZ9W09n-34" target="P5ny5PPakREu4iZ9W09n-32" edge="1">
                    <mxGeometry relative="1" as="geometry"/>
                </mxCell>
                <mxCell id="P5ny5PPakREu4iZ9W09n-34" value="header" style="rounded=0;whiteSpace=wrap;html=1;fillColor=none;strokeColor=light-dark(#a3a3a3, #ededed);fontStyle=0;fontColor=#757575;" parent="1" vertex="1">
                    <mxGeometry x="575" y="80" width="45" height="20" as="geometry"/>
                </mxCell>
                <mxCell id="P5ny5PPakREu4iZ9W09n-35" value=".calendar" style="rounded=0;whiteSpace=wrap;html=1;fillColor=none;strokeColor=light-dark(#a3a3a3, #ededed);fontStyle=0;fontColor=#757575;" parent="1" vertex="1">
                    <mxGeometry x="10" y="60" width="60" height="20" as="geometry"/>
                </mxCell>
                <mxCell id="P5ny5PPakREu4iZ9W09n-36" style="edgeStyle=none;html=1;entryX=0;entryY=0.029;entryDx=0;entryDy=0;entryPerimeter=0;" parent="1" source="P5ny5PPakREu4iZ9W09n-35" target="P5ny5PPakREu4iZ9W09n-2" edge="1">
                    <mxGeometry relative="1" as="geometry">
                        <mxPoint x="875.46" y="258.91999999999996" as="targetPoint"/>
                    </mxGeometry>
                </mxCell>
                <mxCell id="P5ny5PPakREu4iZ9W09n-37" value=".cap" style="rounded=0;whiteSpace=wrap;html=1;fillColor=none;strokeColor=light-dark(#a3a3a3, #ededed);fontStyle=0;fontColor=#757575;" parent="1" vertex="1">
                    <mxGeometry x="215" y="40" width="45" height="20" as="geometry"/>
                </mxCell>
                <mxCell id="P5ny5PPakREu4iZ9W09n-38" value="" style="rounded=0;whiteSpace=wrap;html=1;fillColor=none;strokeColor=#A3A3A3;" parent="1" vertex="1">
                    <mxGeometry x="200" y="130" width="20" height="30" as="geometry"/>
                </mxCell>
                <mxCell id="P5ny5PPakREu4iZ9W09n-39" style="edgeStyle=none;html=1;entryX=0.5;entryY=0;entryDx=0;entryDy=0;" parent="1" source="P5ny5PPakREu4iZ9W09n-37" target="P5ny5PPakREu4iZ9W09n-38" edge="1">
                    <mxGeometry relative="1" as="geometry"/>
                </mxCell>
                <mxCell id="P5ny5PPakREu4iZ9W09n-40" value="" style="rounded=0;whiteSpace=wrap;html=1;fillColor=none;strokeColor=#A3A3A3;" parent="1" vertex="1">
                    <mxGeometry x="220" y="130" width="40" height="30" as="geometry"/>
                </mxCell>
                <mxCell id="P5ny5PPakREu4iZ9W09n-41" style="edgeStyle=none;html=1;" parent="1" source="P5ny5PPakREu4iZ9W09n-42" target="P5ny5PPakREu4iZ9W09n-40" edge="1">
                    <mxGeometry relative="1" as="geometry"/>
                </mxCell>
                <mxCell id="P5ny5PPakREu4iZ9W09n-42" value=".w_cap" style="rounded=0;whiteSpace=wrap;html=1;fillColor=none;strokeColor=light-dark(#a3a3a3, #ededed);fontStyle=0;fontColor=#757575;" parent="1" vertex="1">
                    <mxGeometry x="265.71" y="40" width="45" height="20" as="geometry"/>
                </mxCell>
                <mxCell id="P5ny5PPakREu4iZ9W09n-43" value=".week" style="rounded=0;whiteSpace=wrap;html=1;fillColor=none;strokeColor=light-dark(#a3a3a3, #ededed);fontStyle=0;fontColor=#757575;" parent="1" vertex="1">
                    <mxGeometry x="575" y="185" width="45" height="20" as="geometry"/>
                </mxCell>
                <mxCell id="P5ny5PPakREu4iZ9W09n-44" style="edgeStyle=none;html=1;entryX=0.999;entryY=0.296;entryDx=0;entryDy=0;entryPerimeter=0;" parent="1" source="P5ny5PPakREu4iZ9W09n-43" target="P5ny5PPakREu4iZ9W09n-57" edge="1">
                    <mxGeometry relative="1" as="geometry">
                        <mxPoint x="740" y="250" as="targetPoint"/>
                    </mxGeometry>
                </mxCell>
                <mxCell id="P5ny5PPakREu4iZ9W09n-45" value=".month" style="rounded=0;whiteSpace=wrap;html=1;fillColor=none;strokeColor=light-dark(#a3a3a3, #ededed);fontStyle=0;fontColor=#757575;" parent="1" vertex="1">
                    <mxGeometry x="575.0000000000002" y="490" width="45" height="20" as="geometry"/>
                </mxCell>
                <mxCell id="P5ny5PPakREu4iZ9W09n-46" style="edgeStyle=none;html=1;entryX=1.002;entryY=0.943;entryDx=0;entryDy=0;entryPerimeter=0;" parent="1" source="P5ny5PPakREu4iZ9W09n-45" target="P5ny5PPakREu4iZ9W09n-56" edge="1">
                    <mxGeometry relative="1" as="geometry">
                        <mxPoint x="1330.9" y="318.14" as="targetPoint"/>
                    </mxGeometry>
                </mxCell>
                <mxCell id="P5ny5PPakREu4iZ9W09n-47" value="" style="rounded=0;whiteSpace=wrap;html=1;fillColor=none;strokeColor=#A3A3A3;" parent="1" vertex="1">
                    <mxGeometry x="260" y="130" width="260" height="30" as="geometry"/>
                </mxCell>
                <mxCell id="P5ny5PPakREu4iZ9W09n-48" style="edgeStyle=none;html=1;entryX=1;entryY=0.75;entryDx=0;entryDy=0;" parent="1" source="P5ny5PPakREu4iZ9W09n-49" target="P5ny5PPakREu4iZ9W09n-47" edge="1">
                    <mxGeometry relative="1" as="geometry"/>
                </mxCell>
                <mxCell id="P5ny5PPakREu4iZ9W09n-49" value=".contents" style="rounded=0;whiteSpace=wrap;html=1;fillColor=none;strokeColor=light-dark(#a3a3a3, #ededed);fontStyle=0;fontColor=#757575;" parent="1" vertex="1">
                    <mxGeometry x="575" y="114.5" width="60" height="20" as="geometry"/>
                </mxCell>
                <mxCell id="P5ny5PPakREu4iZ9W09n-50" style="edgeStyle=none;html=1;entryX=0.5;entryY=0;entryDx=0;entryDy=0;" parent="1" source="P5ny5PPakREu4iZ9W09n-51" target="P5ny5PPakREu4iZ9W09n-54" edge="1">
                    <mxGeometry relative="1" as="geometry"/>
                </mxCell>
                <mxCell id="P5ny5PPakREu4iZ9W09n-51" value=".y_cap" style="rounded=0;whiteSpace=wrap;html=1;fillColor=none;strokeColor=light-dark(#a3a3a3, #ededed);fontStyle=0;fontColor=#757575;" parent="1" vertex="1">
                    <mxGeometry x="95" y="40" width="45" height="20" as="geometry"/>
                </mxCell>
                <mxCell id="P5ny5PPakREu4iZ9W09n-52" style="edgeStyle=none;html=1;exitX=0.25;exitY=1;exitDx=0;exitDy=0;entryX=0.5;entryY=0;entryDx=0;entryDy=0;" parent="1" source="P5ny5PPakREu4iZ9W09n-53" target="P5ny5PPakREu4iZ9W09n-55" edge="1">
                    <mxGeometry relative="1" as="geometry"/>
                </mxCell>
                <mxCell id="P5ny5PPakREu4iZ9W09n-53" value=".m_cap" style="rounded=0;whiteSpace=wrap;html=1;fillColor=none;strokeColor=light-dark(#a3a3a3, #ededed);fontStyle=0;fontColor=#757575;" parent="1" vertex="1">
                    <mxGeometry x="155" y="40" width="45" height="20" as="geometry"/>
                </mxCell>
                <mxCell id="P5ny5PPakREu4iZ9W09n-54" value="" style="rounded=0;whiteSpace=wrap;html=1;fillColor=none;strokeColor=#A3A3A3;" parent="1" vertex="1">
                    <mxGeometry x="110" y="130" width="60" height="30" as="geometry"/>
                </mxCell>
                <mxCell id="P5ny5PPakREu4iZ9W09n-55" value="" style="rounded=0;whiteSpace=wrap;html=1;fillColor=none;strokeColor=#A3A3A3;imageWidth=25;" parent="1" vertex="1">
                    <mxGeometry x="173.70000000000005" y="130" width="16.3" height="30" as="geometry"/>
                </mxCell>
                <mxCell id="P5ny5PPakREu4iZ9W09n-56" value="" style="rounded=0;whiteSpace=wrap;html=1;fillColor=none;strokeColor=#A3A3A3;" parent="1" vertex="1">
                    <mxGeometry x="95" y="114.5" width="440" height="405.5" as="geometry"/>
                </mxCell>
                <mxCell id="P5ny5PPakREu4iZ9W09n-57" value="" style="rounded=0;whiteSpace=wrap;html=1;fillColor=none;strokeColor=#A3A3A3;" parent="1" vertex="1">
                    <mxGeometry x="95" y="114.5" width="440" height="360" as="geometry"/>
                </mxCell>
            </root>
        </mxGraphModel>
    </diagram>
</mxfile>